<svg height="512pt" viewBox="-31 0 512 512" width="512pt" xmlns="http://www.w3.org/2000/svg"><path d="m450 497v-331c0-4.070312-1.707031-7.921875-4.394531-10.605469l-90-90c-2.851563-2.851562-6.757813-4.394531-10.605469-4.394531h-15v-46c0-8.285156-6.714844-15-15-15h-300c-8.285156 0-15 6.714844-15 15v421c0 8.285156 6.714844 15 15 15h105v46c0 8.285156 6.714844 15 15 15h300c8.285156 0 15-6.714844 15-15zm-90-384.785156 38.785156 38.785156h-38.785156zm-330 308.785156v-391h270v31h-165c-8.285156 0-15 6.714844-15 15v15h-45c-8.285156 0-15 6.714844-15 15s6.714844 15 15 15h45v30h-45c-8.285156 0-15 6.714844-15 15s6.714844 15 15 15h45v30h-45c-8.285156 0-15 6.714844-15 15s6.714844 15 15 15h45v30h-45c-8.285156 0-15 6.714844-15 15s6.714844 15 15 15h45v30h-45c-8.285156 0-15 6.714844-15 15s6.714844 15 15 15h45v60zm120 61v-391h180v75c0 8.285156 6.714844 15 15 15h75v301zm0 0"/><path d="m375 211h-180c-8.285156 0-15 6.714844-15 15s6.714844 15 15 15h180c8.285156 0 15-6.714844 15-15s-6.714844-15-15-15zm0 0"/><path d="m375 271h-180c-8.285156 0-15 6.714844-15 15s6.714844 15 15 15h180c8.285156 0 15-6.714844 15-15s-6.714844-15-15-15zm0 0"/><path d="m375 331h-180c-8.285156 0-15 6.714844-15 15s6.714844 15 15 15h180c8.285156 0 15-6.714844 15-15s-6.714844-15-15-15zm0 0"/><path d="m375 391h-180c-8.285156 0-15 6.714844-15 15s6.714844 15 15 15h180c8.285156 0 15-6.714844 15-15s-6.714844-15-15-15zm0 0"/></svg>